<svg width="50" height="48" viewBox="0 0 50 48" fill="none" xmlns="http://www.w3.org/2000/svg">
<ellipse cx="25.2143" cy="24" rx="24.5" ry="23.5" fill="#D9D9D9"/>
<path d="M10.6824 26.7633C9.84845 31.2259 12.7268 34.8611 9.36837 34.8611C6.00992 34.8611 2.55396 31.3031 2.55396 26.7633C2.98177 18.4515 9.36837 18.4515 12.3631 18.4515C12.9131 18.4515 11.813 20.7128 10.6824 26.7633Z" fill="black"/>
<path d="M47.9324 25.7245C47.9324 29.3867 46.415 34.4029 41.3014 34.4029C40.9653 30.7054 40.6291 26.9162 39.8957 23.3715C39.8957 19.7093 38.9179 18.6961 40.3846 18.6961C44.4183 17.321 47.9324 22.0622 47.9324 25.7245Z" fill="black"/>
<path d="M25.5026 2.34778C34.7922 2.04879 45.7632 10.1313 45.7634 19.5822C45.7634 24.2044 43.5921 28.3975 40.0661 31.4767C42.0866 28.2824 43.1345 24.4117 43.1345 20.4991C44.6318 14.3877 35.8929 4.0591 25.8395 4.57825C16.1527 4.27266 8.268 10.9956 7.35126 20.4991C7.35127 24.6656 8.77016 28.7859 11.3151 32.0909C7.38727 29.0629 4.90692 24.7707 4.90692 19.9181C4.90725 10.4674 15.3577 2.17122 25.5026 2.34778Z" fill="black"/>
<path d="M41.8515 29.4524C42.7377 37.703 34.8843 44.4563 25.6863 44.1813C15.48 43.8762 7.99328 35.6862 9.52117 29.4524C9.52117 21.706 16.7634 12.7067 26.2364 13.2567C35.4954 12.4316 41.8515 21.706 41.8515 29.4524Z" fill="black"/>
<path d="M15.5215 12.5608C16.124 12.7595 16.7062 13.0151 17.2602 13.3241L19.6053 14.6319L18.2911 15.289C17.6503 15.6094 16.9026 15.6379 16.2393 15.3673L15.4359 15.0395C14.4109 14.6213 13.2583 15.2376 13.0367 16.3221L12.972 16.639C12.9149 16.918 12.9766 17.2082 13.1421 17.4399C13.6908 18.2081 12.9974 19.2468 12.0775 19.0345L10.3463 18.635L10.5907 17.1988L10.7633 15.9335C10.8315 15.4332 10.9375 14.9387 11.0804 14.4544L11.3185 13.6477C11.3832 13.4284 11.47 13.2162 11.5776 13.0145L11.7685 12.6566C11.8584 12.4881 11.9816 12.3396 12.1307 12.2203C12.38 12.0209 12.6898 11.9122 13.0091 11.9122H13.2285C13.4447 11.9122 13.6595 11.9467 13.8648 12.0144L15.5215 12.5608Z" fill="black"/>
<path d="M34.6904 13.5661L31.5229 15.3455L33.0164 16.0977C33.538 16.3604 34.1479 16.3837 34.6881 16.1617L35.2314 15.9385C36.3503 15.4786 37.566 16.3439 37.498 17.5518C37.4872 17.7428 37.4432 17.9304 37.3679 18.1063L37.3205 18.2169C36.8113 19.4067 37.3698 20.7834 38.564 21.2821L40.2013 21.9658L40.4323 19.3207C40.5021 18.5201 40.4753 17.7141 40.3523 16.92L40.2013 15.9459L39.9569 13.8985L39.7826 13.1531C39.7189 12.8806 39.5851 12.6295 39.3945 12.4246C39.0906 12.0978 38.6637 11.9122 38.2175 11.9122C37.9553 11.9122 37.6967 11.9763 37.4649 12.0989L34.6904 13.5661Z" fill="black"/>
<path d="M16.3048 15.3348L18.9367 16.6044C20.9671 15.6946 23.2599 15.1815 25.6867 15.1815C28.1369 15.1816 30.4503 15.7044 32.4953 16.6307L33.6623 16.8016L35.3429 15.6708L37.6652 14.4481L38.0627 17.8407L38.6427 21.1102L39.2541 21.8739L40.2628 24.5634L40.507 26.0907L40.5265 26.3055C40.6736 27.0598 40.7511 27.836 40.7511 28.6278C40.7508 36.0532 34.0065 42.0729 25.6867 42.0731C17.3667 42.0731 10.6215 36.0533 10.6212 28.6278C10.6212 28.3446 10.6322 28.063 10.6515 27.7841V26.0604L10.9572 24.41L11.4464 22.7294L11.9962 21.1102L12.6076 17.535L13.4328 14.204L16.3048 15.3348Z" fill="#F7F7F6"/>
<path d="M16.8802 21.8662C16.9627 21.6738 17.11 21.5162 17.2965 21.421L18.4441 20.835C19.2926 20.5118 20.193 20.3461 21.1009 20.3461H22.5331C22.9617 20.3461 23.3872 20.4184 23.7917 20.56L24.1735 20.6805C24.3041 20.7218 24.4229 20.7939 24.5198 20.8908C24.6797 21.0507 24.7696 21.2677 24.7696 21.4939V21.5768C24.7696 21.6522 24.7574 21.7271 24.7336 21.7986L24.7071 21.8782C24.6687 21.9934 24.5885 22.09 24.4823 22.149C24.4102 22.1891 24.329 22.2101 24.2465 22.2101H23.8893C23.7635 22.2101 23.638 22.1974 23.5147 22.1721L23.1042 22.0879C22.7079 22.0066 22.3045 21.9656 21.9 21.9656H21.752C20.9176 21.9656 20.0891 22.1058 19.3011 22.3803L17.9476 22.8517C17.8312 22.8922 17.7089 22.9129 17.5857 22.9129H17.3926C17.2245 22.9129 17.0633 22.8462 16.9445 22.7273C16.7613 22.5441 16.7081 22.2679 16.8102 22.0297L16.8802 21.8662Z" fill="black"/>
<path d="M32.836 20.4481C32.9993 20.4209 33.1645 20.4072 33.33 20.4072H34.7116C34.9682 20.4072 35.2238 20.4403 35.4719 20.5056C35.6096 20.5418 35.7446 20.5879 35.8757 20.6433L36.0976 20.7372C36.3473 20.8429 36.5853 20.9746 36.8074 21.1301L37.0165 21.2764C37.0617 21.308 37.104 21.3436 37.1431 21.3826C37.3207 21.5603 37.4205 21.8013 37.4205 22.0525V22.4995C37.4205 22.604 37.3645 22.7005 37.2738 22.7524C37.2298 22.7775 37.18 22.7907 37.1293 22.7907H36.9496C36.7586 22.7907 36.5718 22.7342 36.4128 22.6282L36.1066 22.4241L35.6189 22.1802C35.496 22.1188 35.3685 22.0671 35.2375 22.0258C34.9831 21.9454 34.7179 21.9046 34.4512 21.9046H34.1848C33.8174 21.9046 33.4516 21.9525 33.0966 22.0472L32.879 22.1052C32.7696 22.1344 32.6578 22.1532 32.545 22.1616L32.1657 22.1897C31.9873 22.2029 31.8098 22.1532 31.6643 22.0492L31.6311 22.0255C31.521 21.9469 31.4387 21.8354 31.3959 21.7071C31.3404 21.5405 31.3558 21.3585 31.4384 21.2035L31.4659 21.1519C31.5234 21.044 31.6056 20.9513 31.7057 20.8812L31.8675 20.768C32.0631 20.6311 32.2868 20.5396 32.5223 20.5004L32.836 20.4481Z" fill="black"/>
<path d="M25.9002 27.2827L27.2448 26.9771L28.3143 26.6409L28.7727 26.0603L28.8032 25.327L28.7421 24.9603L28.4365 24.6241L27.7031 24.1963L27.1225 23.8296L26.7864 23.6768L26.6336 23.524V23.1573L26.7253 22.699L27.0309 22.4851C27.2943 22.404 27.5681 22.3615 27.8437 22.3589L30.6367 22.3323L31.3701 22.5156L31.7062 22.6684L32.0118 22.974L32.1646 23.1573V23.3712V23.7379L31.859 24.0435L31.584 24.2574L31.4312 24.3491H31.2173L30.9423 24.6547L30.6978 24.9908L30.6061 25.7242L30.4534 26.0603L30.3311 26.5187L31.0951 26.5798L32.0118 26.8243L33.2952 27.4966L33.8453 28.0161L34.3037 28.5355L34.2731 29.1161L33.7842 29.819L32.9286 31.4997L32.5007 32.5081L32.1646 33.5776L31.859 36.4806L31.2173 38.0391L30.7284 38.7419L30.0255 39.2919L28.956 39.7197L28.2532 39.8725H27.5198L26.7864 39.8114L26.0836 39.6586L24.5557 38.9252L23.0889 37.7029L22.2638 36.8167L21.5916 35.8694L20.7665 34.2193L20.3998 33.1803L20.247 32.1108L20.3081 31.1024L20.7971 30.0634L21.8055 29.0245L22.9055 28.2911L24.3418 27.7105L25.9002 27.2827Z" fill="black"/>
<path d="M23.5778 34.4639L23.914 34.0055L24.4029 33.6999L25.1668 33.4554H26.5114L27.6726 33.8221L28.6504 34.3722L29.5061 35.4112L29.6894 35.9612L29.6283 36.9696L29.1088 37.6724L28.4365 38.0391L27.0003 37.9475L25.8085 37.4891L24.4029 36.4501L23.6695 35.1667L23.5778 34.4639Z" fill="#F8F7F7"/>
</svg>
